<?xml version="1.0" encoding="utf-8"?>
<!-- Generator: Adobe Illustrator 27.2.0, SVG Export Plug-In . SVG Version: 6.00 Build 0)  -->
<svg version="1.1" id="Layer_1" xmlns="http://www.w3.org/2000/svg" xmlns:xlink="http://www.w3.org/1999/xlink" x="0px" y="0px"
	 viewBox="0 0 700 585.3" style="enable-background:new 0 0 700 585.3;" xml:space="preserve">
<style type="text/css">
	.st0{opacity:0.12;fill:#FFFFFF;}
	.st1{fill:#DD1C77;}
	.st2{fill:#DF65B0;}
	.st3{fill:#980043;}
	.st4{fill:#C994C7;}
	.st5{fill:#F1EEF6;}
	.st6{fill:#D4B9DA;}
	.st7{enable-background:new    ;}
	.st8{fill:#FFFFFF;}
	.st9{font-family:'ArialMT';}
	.st10{font-size:31px;}
	.st11{font-size:24px;}
	.st12{font-size:13px;}
	.st13{font-size:11px;}
	.st14{fill:#666666;}
	.st15{font-size:12px;}
	.st16{font-size:10px;}
	.st17{font-size:16px;}
	.st18{font-size:7px;}
	.st19{font-size:5px;}
	.st20{font-size:14px;}
	.st21{fill:#777777;}
	.st22{font-family:'Arial-BoldMT';}
	.st23{font-size:18px;}
	.st24{fill:#888888;}
	.st25{fill:none;stroke:#777777;}
</style>
<rect id="backgorund" x="0.3" y="0.3" class="st0" width="700" height="584.9"/>
<g id="viz" transform="translate(20,20)">
	<g id="nodes">
		<g id="knockers" transform="translate(277.568771231964,274.5713419951032)">
			<path id="p_775.3449018905521" class="st1" d="M33.8,247.2c-123.8,0-224.2-100.4-224.2-224.2S-90-201.3,33.8-201.3
				S258-100.9,258,22.9S157.7,247.2,33.8,247.2z"/>
		</g>
		<g id="heating_cooling" transform="translate(556.3409391449127,274.5713419951032)">
			<path id="p_882.5010250440671" class="st2" d="M33.8,75.5C4.8,75.5-18.8,52-18.8,23S4.8-29.6,33.8-29.6c0,0,0,0,0,0
				c29,0,52.6,23.5,52.6,52.6C86.4,52,62.9,75.5,33.8,75.5C33.9,75.5,33.8,75.5,33.8,75.5z"/>
		</g>
		<g id="injury" transform="translate(535.1832060724867,378.68473950779014)">
			<path id="p_964.5420328605951" class="st3" d="M33.8,74.6C5.3,74.6-17.8,51.5-17.8,23S5.3-28.7,33.8-28.7c0,0,0,0,0,0
				c28.5,0,51.7,23.1,51.7,51.7C85.5,51.5,62.4,74.6,33.8,74.6C33.9,74.6,33.8,74.6,33.8,74.6z"/>
		</g>
		<g id="menstruation" transform="translate(531.4268367299203,177.58043969878423)">
			<path id="p_753.5795378186939" class="st4" d="M33.8,68.5C8.7,68.5-11.7,48.1-11.7,23S8.7-22.6,33.8-22.6c0,0,0,0,0,0
				c25.2,0,45.6,20.4,45.6,45.6S59,68.5,33.8,68.5C33.8,68.5,33.8,68.5,33.8,68.5z"/>
		</g>
		<g id="Other" transform="translate(482.82710747213514,103.65757370397898)">
			<path id="p_626.4014271176592" class="st5" d="M33.8,63.9c-22.6,0-40.9-18.3-40.9-40.9S11.2-18,33.8-18S74.8,0.4,74.8,22.9
				S56.4,63.9,33.8,63.9z"/>
		</g>
		<g id="cannula_iv" transform="translate(475.2116561328173,429.24918956722934)">
			<path id="p_928.2514173191382" class="st6" d="M33.8,47.7C20.2,47.7,9,36.6,9,23S20.1-1.8,33.8-1.8c0,0,0,0,0,0
				c13.7,0,24.8,11.1,24.8,24.8C58.6,36.6,47.5,47.7,33.8,47.7C33.8,47.7,33.8,47.7,33.8,47.7z"/>
		</g>
	</g>
	<g id="labels">
		<g transform="translate(277.568771231964,274.5713419951032)">
			<text transform="matrix(1 0 0 1 -21.9287 35.2348)" class="st7"><tspan x="0" y="0" class="st8 st9 st10">Knockers</tspan><tspan x="37.9" y="28.8" class="st8 st9 st11">4744</tspan></text>
		</g>
		<g transform="translate(556.3409391449127,274.5713419951032)">
			<text transform="matrix(1 0 0 1 5.4142 16.5674)" class="st7"><tspan x="0" y="0" class="st8 st9 st12">Heating or</tspan><tspan x="-6.5" y="15.6" class="st8 st9 st12">cooling bags</tspan><tspan x="20.8" y="28.8" class="st8 st9 st13">261</tspan></text>
		</g>
		<g transform="translate(535.1832060724867,378.68473950779014)">
		</g>
		<g transform="translate(531.4268367299203,177.58043969878423)">
			<text transform="matrix(1 0 0 1 6.1088 17.9176)"><tspan x="0" y="0" class="st8 st9 st12">Menst</tspan><tspan x="35.4" y="0" class="st8 st9 st12">r</tspan><tspan x="39.9" y="0" class="st8 st9 st12">ual</tspan><tspan x="3.7" y="15.6" class="st8 st9 st12">products</tspan><tspan x="19.5" y="28.8" class="st8 st9 st13">196</tspan></text>
		</g>
		<g transform="translate(482.82710747213514,103.65757370397898)">
			<text transform="matrix(1 0 0 1 18.8195 23.3609)" class="st7"><tspan x="0" y="0" class="st14 st9 st15">Other</tspan><tspan x="6.7" y="12" class="st14 st9 st16">158</tspan></text>
		</g>
	</g>
	<text transform="matrix(1 0 0 1 548.9529 403.1023)"><tspan x="0" y="0" class="st8 st9 st17">Inju</tspan><tspan x="25.8" y="0" class="st8 st9 st17">r</tspan><tspan x="31.6" y="0" class="st8 st9 st17">y</tspan><tspan x="9" y="15.6" class="st8 st9 st12">252</tspan></text>
	<text transform="matrix(1 0 0 1 489.9453 448.9712)"><tspan x="0" y="0" class="st8 st9 st18">Cannular or </tspan><tspan x="-0.4" y="8.4" class="st8 st9 st18">IV protection</tspan><tspan x="16.5" y="14.4" class="st8 st9 st19">58</tspan></text>
</g>
<text transform="matrix(1 0 0 1 8.0324 45.095)"><tspan x="0" y="0" class="st14 st9 st20">Popularity of each category of recipes. The size of the bubble shows the number of completed Ravelry </tspan><tspan x="0" y="16.8" class="st14 st9 st20">projects using a recipe in each category.</tspan><tspan x="250.6" y="16.8" class="st21 st9 st20"> </tspan></text>
<text transform="matrix(1 0 0 1 7.7774 26.9434)"><tspan x="0" y="0" class="st1 st22 st23">Knitted Kno</tspan><tspan x="102" y="0" class="st1 st22 st23">c</tspan><tspan x="111.6" y="0" class="st1 st22 st23">ke</tspan><tspan x="131.7" y="0" class="st1 st22 st23">r</tspan><tspan x="138.4" y="0" class="st1 st22 st23">s</tspan><tspan x="148.4" y="0" class="st22 st23"> is the most </tspan><tspan x="253.4" y="0" class="st22 st23">P</tspan><tspan x="264.7" y="0" class="st22 st23">opular Medical Knitting Recipe</tspan></text>
<text transform="matrix(1 0 0 1 8.3651 575.7145)" class="st24 st9 st15">Source: Ravelry</text>
<text transform="matrix(1 0 0 1 16.7712 123.3091)"><tspan x="0" y="0" class="st21 st22 st13">4,744 completed projects </tspan><tspan x="-4.6" y="13.2" class="st21 st22 st13">have used a knocker recipe</tspan></text>
<g>
	<g>
		<path class="st25" d="M63.4,143.9c-1.1,3.3-7.4,23.3,3.7,45c9.1,17.8,26.8,30.4,46,33.3"/>
		<g>
			<polygon class="st21" points="111.2,227 120.2,222.8 112.1,217.1 			"/>
		</g>
	</g>
</g>
</svg>
